HIERARCHY
ROOT Hips
{
	OFFSET -32.860001 56.121803 44.745396
	CHANNELS 6 Xposition Yposition Zposition Zrotation Xrotation Yrotation
	JOINT Chest
	{
		OFFSET -0.637402 0.831600 5.390099
		CHANNELS 6 Xposition Yposition Zposition Zrotation Xrotation Yrotation
		JOINT Chest2
		{
			OFFSET 0.000000 0.000000 4.429901
			CHANNELS 6 Xposition Yposition Zposition Zrotation Xrotation Yrotation
			JOINT Neck
			{
				OFFSET 0.000000 0.000000 10.301395
				CHANNELS 6 Xposition Yposition Zposition Zrotation Xrotation Yrotation
				JOINT Head
				{
					OFFSET 0.000000 0.000000 2.173897
					CHANNELS 6 Xposition Yposition Zposition Zrotation Xrotation Yrotation
					End Site
					{
						OFFSET 0.000000 0.000000 8.298004
					}
				}
			}
			JOINT LeftCollar
			{
				OFFSET 2.142401 -0.572701 5.717800
				CHANNELS 6 Xposition Yposition Zposition Zrotation Xrotation Yrotation
				JOINT LeftShoulder
				{
					OFFSET 5.674000 0.000000 0.000000
					CHANNELS 6 Xposition Yposition Zposition Zrotation Xrotation Yrotation
					JOINT LeftElbow
					{
						OFFSET 0.000000 0.000000 -12.238701
						CHANNELS 6 Xposition Yposition Zposition Zrotation Xrotation Yrotation
						JOINT LeftWrist
						{
							OFFSET 0.000000 0.000000 -10.253700
							CHANNELS 6 Xposition Yposition Zposition Zrotation Xrotation Yrotation
							End Site
							{
								OFFSET 0.000000 0.000000 -2.173901
							}
						}
					}
				}
			}
			JOINT RightCollar
			{
				OFFSET -2.882599 -1.580101 6.695801
				CHANNELS 6 Xposition Yposition Zposition Zrotation Xrotation Yrotation
				JOINT RightShoulder
				{
					OFFSET -4.235600 0.000000 0.000000
					CHANNELS 6 Xposition Yposition Zposition Zrotation Xrotation Yrotation
					JOINT RightElbow
					{
						OFFSET 0.000000 0.000000 -10.709900
						CHANNELS 6 Xposition Yposition Zposition Zrotation Xrotation Yrotation
						JOINT RightWrist
						{
							OFFSET 0.000000 0.000000 -11.716801
							CHANNELS 6 Xposition Yposition Zposition Zrotation Xrotation Yrotation
							End Site
							{
								OFFSET 0.000000 0.000000 -2.173901
							}
						}
					}
				}
			}
		}
	}
	JOINT LeftHip
	{
		OFFSET 2.279499 0.210400 -2.475502
		CHANNELS 6 Xposition Yposition Zposition Zrotation Xrotation Yrotation
		JOINT LeftKnee
		{
			OFFSET 0.000000 -0.000004 -20.742800
			CHANNELS 6 Xposition Yposition Zposition Zrotation Xrotation Yrotation
			JOINT LeftAnkle
			{
				OFFSET 0.000000 0.000000 -16.666000
				CHANNELS 6 Xposition Yposition Zposition Zrotation Xrotation Yrotation
				End Site
				{
					OFFSET 0.000000 -8.310898 0.000000
				}
			}
		}
	}
	JOINT RightHip
	{
		OFFSET -1.961899 0.232300 -2.727402
		CHANNELS 6 Xposition Yposition Zposition Zrotation Xrotation Yrotation
		JOINT RightKnee
		{
			OFFSET 0.000000 -0.000004 -20.526800
			CHANNELS 6 Xposition Yposition Zposition Zrotation Xrotation Yrotation
			JOINT RightAnkle
			{
				OFFSET 0.000000 0.000000 -16.867300
				CHANNELS 6 Xposition Yposition Zposition Zrotation Xrotation Yrotation
				End Site
				{
					OFFSET 0.000000 -7.186401 0.000000
				}
			}
		}
	}
}
MOTION
Frames: 10
Frame Time: 0.041667
4.636715 32.051304 31.934692 1165.666967 -21.498053 -7.880573 -0.637391 0.831604 5.390094 40.262019 9.216330 -5.782065 -0.000003 -0.000002 4.429899 -9.988464 -0.852077 0.252806 -0.000000 0.000002 10.301399 334.452234 11.382467 7.412068 -0.000006 -0.000000 2.173889 -362.673729 0.176575 0.291954 2.142395 -0.572698 5.717796 -5.934687 13.765011 -1.333197 5.674000 0.000001 0.000009 168.231562 155.294951 162.463317 0.000004 0.000000 -12.238688 527.855433 -511.186657 -173.641959 0.000011 0.000001 -10.253702 -600.496899 39.545504 -36.610422 -2.882597 -1.580092 6.695797 19.393701 11.378077 -28.899367 -4.235609 -0.000010 -0.000002 -145.337819 225.211746 -92.769070 0.000003 0.000002 -10.709904 -29.783648 -16.408339 -15.785629 -0.000004 0.000005 -11.716797 86.391026 16.805592 58.802191 2.279507 0.210405 -2.475504 407.946709 -34.806729 50.610537 -0.000010 -0.000001 -20.742802 202.218515 -14.562798 71.908566 -0.000001 -0.000000 -16.666002 -297.961866 15.516503 42.407944 -1.961888 0.232305 -2.727400 -637.182774 31.550512 -35.417201 -0.000003 -0.000000 -20.526798 896.686140 150.620984 -248.393817 -0.000001 0.000001 -16.867300 -395.273948 15.216482 -14.400282
4.637306 32.051907 31.944290 1165.652433 -21.477182 -7.920760 -0.637400 0.831600 5.390097 40.232324 9.219726 -5.737836 0.000001 -0.000006 4.429905 -10.014393 -0.811280 0.256501 -0.000002 0.000000 10.301409 334.453736 11.397574 7.457573 -0.000005 -0.000000 2.173896 -362.686542 0.158004 0.293828 2.142400 -0.572701 5.717816 -5.877447 13.730668 -1.385239 5.674006 -0.000001 0.000005 168.421605 155.434301 162.345441 0.000007 0.000002 -12.238696 535.184390 -511.532265 -170.263010 0.000011 0.000002 -10.253695 -609.783443 39.900469 -36.139473 -2.882603 -1.580096 6.695804 19.408619 11.358120 -28.627915 -4.235603 -0.000004 -0.000002 -145.632365 225.426309 -93.175337 0.000002 0.000000 -10.709901 -29.582465 -16.470504 -15.758805 -0.000004 -0.000004 -11.716801 86.282091 16.833145 58.915074 2.279497 0.210403 -2.475502 407.967472 -34.779402 50.632797 -0.000010 0.000004 -20.742802 202.234006 -14.509893 71.901449 -0.000000 -0.000003 -16.665998 -297.988176 15.512142 42.379971 -1.961900 0.232300 -2.727400 -637.204303 31.591435 -35.392585 -0.000004 0.000003 -20.526802 896.641607 150.585345 -248.302949 -0.000002 -0.000002 -16.867304 -395.234524 15.246152 -14.433405
4.638412 32.053108 31.954988 1165.629155 -21.460579 -7.967031 -0.637406 0.831599 5.390105 40.194919 9.228841 -5.689222 0.000004 -0.000001 4.429906 -10.029590 -0.775653 0.259452 -0.000001 -0.000001 10.301399 334.447289 11.429924 7.488863 -0.000001 -0.000002 2.173898 -362.684302 0.151642 0.288818 2.142396 -0.572706 5.717801 -5.823506 13.703409 -1.453170 5.674000 0.000002 -0.000000 168.682983 155.601558 162.238289 0.000002 0.000003 -12.238693 542.950315 -512.299814 -166.677134 0.000001 0.000002 -10.253702 -619.618478 40.216673 -35.879096 -2.882599 -1.580101 6.695802 19.421151 11.344333 -28.363450 -4.235609 -0.000002 0.000002 -145.932633 225.696279 -93.595749 0.000005 0.000004 -10.709900 -29.251614 -16.579306 -15.700739 -0.000008 0.000001 -11.716810 86.109213 16.854025 58.978260 2.279504 0.210402 -2.475500 407.988400 -34.747044 50.650241 -0.000001 0.000003 -20.742802 202.257324 -14.440355 71.897214 -0.000002 0.000001 -16.666004 -298.026780 15.506008 42.346927 -1.961905 0.232304 -2.727396 -637.222007 31.641220 -35.364957 -0.000004 -0.000005 -20.526804 896.590408 150.519788 -248.218637 -0.000002 0.000000 -16.867300 -395.172178 15.288742 -14.438125
4.639709 32.054810 31.966291 1165.600851 -21.452659 -8.010768 -0.637401 0.831599 5.390099 40.139724 9.245265 -5.643049 0.000001 0.000001 4.429897 -10.026232 -0.751046 0.261717 0.000004 0.000004 10.301401 334.459064 11.483250 7.491297 -0.000005 -0.000002 2.173898 -362.686351 0.157985 0.300634 2.142402 -0.572704 5.717796 -5.777722 13.686960 -1.520303 5.673998 0.000002 0.000002 168.889992 155.748667 162.166477 -0.000003 0.000007 -12.238697 548.711935 -513.128234 -164.019411 0.000006 -0.000003 -10.253703 -627.914044 40.741371 -35.285724 -2.882595 -1.580091 6.695795 19.441901 11.337142 -28.131247 -4.235607 -0.000010 0.000002 -146.219556 225.987874 -93.993901 0.000001 -0.000002 -10.709897 -28.838350 -16.716661 -15.617605 -0.000002 -0.000001 -11.716808 85.895660 16.866105 58.985070 2.279494 0.210402 -2.475504 408.002498 -34.712111 50.654534 -0.000003 -0.000005 -20.742805 202.285642 -14.361535 71.894086 0.000000 0.000004 -16.666000 -298.072461 15.501097 42.311034 -1.961902 0.232301 -2.727396 -637.232881 31.688669 -35.340789 -0.000003 0.000003 -20.526798 896.527024 150.413155 -248.145745 0.000001 0.000003 -16.867302 -395.084042 15.340989 -14.402016
4.641006 32.057598 31.977791 1165.562274 -21.447627 -8.055833 -0.637396 0.831600 5.390102 40.066521 9.270449 -5.593432 0.000002 -0.000001 4.429895 -10.284035 -0.748844 0.145125 0.000005 0.000000 10.301389 334.730332 11.503288 7.595243 0.000002 -0.000005 2.173896 -362.672308 0.174528 0.316680 2.142399 -0.572702 5.717799 -5.496800 13.676918 -1.456872 5.673991 0.000001 0.000006 169.166068 155.867676 162.079569 -0.000004 -0.000005 -12.238700 552.482964 -513.706888 -162.227498 0.000000 -0.000002 -10.253702 -633.484746 41.090780 -35.050246 -2.882605 -1.580096 6.695792 19.747776 11.379239 -27.848029 -4.235607 -0.000010 -0.000005 -146.468667 226.256792 -94.323068 -0.000001 -0.000005 -10.709899 -28.401590 -16.856697 -15.519698 -0.000004 -0.000001 -11.716799 85.662819 16.873347 58.946547 2.279500 0.210407 -2.475504 408.024545 -34.673404 50.655381 -0.000004 -0.000009 -20.742800 202.313919 -14.275604 71.893355 -0.000002 -0.000002 -16.665997 -298.123031 15.496854 42.268465 -1.961898 0.232302 -2.727398 -637.242443 31.736334 -35.310200 -0.000000 -0.000009 -20.526802 896.475333 150.280418 -248.087934 0.000004 -0.000002 -16.867302 -394.985987 15.394420 -14.337107
4.641899 32.061703 31.989092 1165.513206 -21.440077 -8.098061 -0.637401 0.831597 5.390104 39.988801 9.296839 -5.546198 0.000000 0.000003 4.429894 -10.236332 -0.751846 0.144472 -0.000003 0.000001 10.301388 334.746806 11.570730 7.576336 -0.000006 -0.000001 2.173898 -362.659467 0.191187 0.334530 2.142394 -0.572699 5.717799 -5.515434 13.679277 -1.474269 5.673995 -0.000001 -0.000002 169.416422 155.950444 161.996665 -0.000002 -0.000001 -12.238700 554.299030 -513.965014 -161.299425 -0.000001 -0.000001 -10.253703 -636.540135 41.347807 -34.886164 -2.882603 -1.580095 6.695795 19.810836 11.379132 -27.754981 -4.235611 0.000000 -0.000006 -146.648656 226.466684 -94.531232 0.000007 -0.000001 -10.709894 -27.995050 -16.976439 -15.421560 -0.000005 -0.000002 -11.716808 85.438249 16.875511 58.876244 2.279505 0.210399 -2.475498 408.056948 -34.637990 50.654397 -0.000002 -0.000009 -20.742802 202.350829 -14.168836 71.897071 -0.000004 -0.000001 -16.666000 -298.190869 15.501922 42.204278 -1.961897 0.232296 -2.727396 -637.250803 31.778838 -35.270144 -0.000000 -0.000003 -20.526800 896.445663 150.144524 -248.045259 0.000001 0.000004 -16.867302 -394.896184 15.444000 -14.257753
4.642200 32.067001 31.999891 1165.454303 -21.422859 -8.135954 -0.637392 0.831605 5.390095 39.919932 9.316316 -5.504853 -0.000003 -0.000007 4.429897 -10.170371 -0.766413 0.144219 0.000001 0.000000 10.301394 334.754975 11.632901 7.559018 -0.000002 0.000001 2.173899 -362.641435 0.201407 0.338740 2.142400 -0.572703 5.717803 -5.560139 13.689194 -1.433910 5.673995 -0.000002 0.000006 169.528697 155.977151 161.927625 0.000001 -0.000001 -12.238698 554.608519 -513.934524 -161.099150 0.000006 0.000003 -10.253699 -637.463413 41.483069 -34.737208 -2.882595 -1.580094 6.695797 19.887523 11.380929 -27.759270 -4.235607 -0.000002 -0.000001 -146.740221 226.590050 -94.590416 0.000003 0.000010 -10.709901 -27.645530 -17.064650 -15.327616 -0.000003 -0.000004 -11.716803 85.226049 16.871885 58.787486 2.279503 0.210407 -2.475502 408.104868 -34.611533 50.657802 -0.000003 -0.000009 -20.742800 202.401577 -14.034169 71.906818 -0.000001 -0.000000 -16.665998 -298.283595 15.520440 42.111108 -1.961901 0.232308 -2.727396 -637.251623 31.811524 -35.219631 -0.000000 -0.000002 -20.526802 896.435773 150.027250 -248.016108 0.000002 -0.000001 -16.867302 -394.825423 15.487048 -14.172682
4.641903 32.073608 32.009789 1165.387531 -21.391739 -8.166591 -0.637400 0.831593 5.390097 39.863320 9.321079 -5.472103 0.000001 0.000001 4.429904 -10.095771 -0.787210 0.144424 -0.000002 -0.000003 10.301399 334.768280 11.682268 7.543498 -0.000002 -0.000002 2.173892 -362.628267 0.193749 0.332733 2.142395 -0.572701 5.717807 -5.637742 13.701858 -1.346510 5.673990 0.000008 0.000003 169.582341 155.963750 161.867997 0.000001 -0.000003 -12.238699 554.049318 -513.740711 -161.319424 0.000008 0.000001 -10.253698 -636.995518 41.508023 -34.629619 -2.882591 -1.580101 6.695797 19.969827 11.384101 -27.835475 -4.235607 -0.000002 0.000004 -146.752078 226.619133 -94.526328 0.000001 0.000004 -10.709902 -27.400702 -17.111277 -15.254930 -0.000005 -0.000007 -11.716799 85.056626 16.865786 58.689773 2.279492 0.210395 -2.475502 408.169045 -34.598040 50.669311 -0.000003 -0.000005 -20.742800 202.465945 -13.868932 71.924754 -0.000002 -0.000001 -16.666002 -298.401293 15.551304 41.988240 -1.961902 0.232298 -2.727400 -637.240421 31.830905 -35.160687 -0.000004 0.000001 -20.526804 896.434407 149.936996 -247.994989 0.000001 -0.000005 -16.867302 -394.778049 15.527604 -14.071586
4.641602 32.081306 32.018787 1165.315950 -21.338385 -8.187374 -0.637412 0.831599 5.390094 39.832379 9.299336 -5.443111 0.000004 0.000004 4.429897 -10.025561 -0.808242 0.145294 -0.000001 0.000004 10.301392 334.770493 11.711215 7.538150 -0.000001 -0.000002 2.173900 -362.608077 0.161484 0.300759 2.142395 -0.572695 5.717795 -5.734017 13.714736 -1.228741 5.673996 0.000000 0.000000 169.629783 155.934011 161.796800 0.000008 -0.000001 -12.238695 553.846926 -513.633832 -161.413353 0.000007 -0.000002 -10.253704 -636.798262 41.542191 -34.517006 -2.882593 -1.580095 6.695790 20.039454 11.387430 -27.972712 -4.235605 -0.000002 -0.000007 -146.685798 226.558850 -94.360894 0.000003 0.000005 -10.709898 -27.258831 -17.118857 -15.202020 -0.000008 0.000000 -11.716801 84.652832 16.949775 58.565867 2.279493 0.210402 -2.475504 408.247838 -34.606953 50.693965 -0.000004 -0.000013 -20.742802 202.543878 -13.678291 71.949179 -0.000002 0.000001 -16.665998 -298.538553 15.590397 41.844351 -1.961906 0.232305 -2.727406 -637.230859 31.838749 -35.084254 -0.000000 0.000001 -20.526802 896.435117 149.864869 -247.970619 0.000001 0.000009 -16.867298 -394.747450 15.570909 -13.939233
4.641907 32.089302 32.026890 1165.247321 -21.271881 -8.191654 -0.637400 0.831599 5.390100 39.828329 9.253504 -5.426397 0.000005 -0.000002 4.429895 -9.971864 -0.825651 0.146519 0.000001 -0.000001 10.301400 334.763827 11.714885 7.544616 -0.000005 0.000000 2.173894 -362.580865 0.102411 0.246362 2.142401 -0.572701 5.717797 -5.824255 13.724853 -1.102074 5.674001 -0.000002 0.000009 169.612203 155.906158 161.725397 0.000001 0.000012 -12.238700 554.083086 -513.689676 -161.341322 0.000003 -0.000001 -10.253698 -637.009014 41.579272 -34.397888 -2.882589 -1.580094 6.695793 20.081441 11.390950 -28.138260 -4.235611 -0.000004 -0.000005 -146.566270 226.434486 -94.147696 0.000002 -0.000006 -10.709901 -27.221412 -17.095279 -15.168899 -0.000006 -0.000001 -11.716805 84.481572 16.858818 58.747468 2.279500 0.210401 -2.475500 408.321030 -34.640868 50.716781 -0.000006 0.000000 -20.742804 202.628108 -13.491388 71.970735 -0.000002 -0.000002 -16.666000 -298.670922 15.634394 41.706245 -1.961904 0.232302 -2.727402 -637.231624 31.834200 -35.001516 0.000002 -0.000002 -20.526804 896.396540 149.748742 -247.922726 0.000002 -0.000000 -16.867300 -394.687536 15.631578 -13.730482
